<svg width="134" height="180" viewBox="0 0 134 180" fill="none" xmlns="http://www.w3.org/2000/svg">
<path d="M61.6957 5.90965C64.5279 2.75415 69.4721 2.75415 72.3043 5.90964L80.2249 14.734C81.9311 16.635 84.5243 17.4776 87.022 16.9425L98.6167 14.4591C102.763 13.571 106.763 16.477 107.199 20.6947L108.42 32.4893C108.683 35.0302 110.286 37.236 112.621 38.2713L123.461 43.0773C127.338 44.7959 128.865 49.498 126.74 53.1668L120.795 63.4265C119.514 65.6367 119.514 68.3633 120.795 70.5735L126.74 80.8332C128.865 84.502 127.338 89.2041 123.461 90.9227L112.621 95.7287C110.286 96.764 108.683 98.9698 108.42 101.511L107.199 113.305C106.763 117.523 102.763 120.429 98.6167 119.541L87.022 117.057C84.5243 116.522 81.9311 117.365 80.2249 119.266L72.3043 128.09C69.4721 131.246 64.5279 131.246 61.6957 128.09L53.7751 119.266C52.0689 117.365 49.4757 116.522 46.978 117.057L35.3833 119.541C31.2372 120.429 27.2373 117.523 26.8007 113.305L25.5797 101.511C25.3166 98.9698 23.714 96.764 21.3788 95.7287L10.5388 90.9227C6.66248 89.2041 5.13466 84.502 7.26049 80.8332L13.2054 70.5735C14.4861 68.3633 14.4861 65.6367 13.2054 63.4265L7.26049 53.1668C5.13466 49.498 6.66247 44.7959 10.5387 43.0773L21.3788 38.2713C23.714 37.236 25.3166 35.0302 25.5797 32.4893L26.8007 20.6947C27.2373 16.4771 31.2372 13.571 35.3833 14.459L46.978 16.9425C49.4757 17.4776 52.0689 16.635 53.7751 14.734L61.6957 5.90965Z" fill="#ECBE15"/>
<path d="M49.2915 67H83.7082" stroke="#2D2E27" stroke-width="4.91667" stroke-linecap="round" stroke-linejoin="round"/>
<path d="M66.5 49.791L83.7083 66.9994L66.5 84.2077" stroke="#2D2E27" stroke-width="4.91667" stroke-linecap="round" stroke-linejoin="round"/>
<path d="M25.4195 154.74H27.1795L26.2995 156.9L23.9595 166H21.2595L18.2995 154.74H20.0795L22.6195 165.26L25.4195 154.74ZM32.5195 154.74H34.2995L31.2795 166H28.5995L26.2995 156.9L25.3995 154.74H27.1795L29.9395 165.26L32.5195 154.74ZM38.9009 166.18C38.1543 166.18 37.5409 166 37.0609 165.64C36.5943 165.28 36.2476 164.787 36.0209 164.16C35.8076 163.533 35.7009 162.813 35.7009 162C35.7009 161.16 35.8143 160.427 36.0409 159.8C36.2676 159.16 36.6143 158.66 37.0809 158.3C37.5609 157.94 38.1676 157.76 38.9009 157.76C39.3543 157.76 39.7409 157.827 40.0609 157.96C40.3809 158.08 40.6476 158.233 40.8609 158.42C41.0743 158.607 41.2476 158.8 41.3809 159C41.5143 159.187 41.6076 159.353 41.6609 159.5H41.7009V157.82H43.4009V166H41.9809L41.7009 164.54H41.6609C41.6076 164.687 41.5143 164.853 41.3809 165.04C41.2476 165.227 41.0676 165.407 40.8409 165.58C40.6276 165.753 40.3609 165.893 40.0409 166C39.7209 166.12 39.3409 166.18 38.9009 166.18ZM39.5609 164.76C40.0943 164.76 40.5143 164.647 40.8209 164.42C41.1276 164.18 41.3476 163.853 41.4809 163.44C41.6143 163.027 41.6809 162.553 41.6809 162.02C41.6809 161.447 41.6076 160.953 41.4609 160.54C41.3276 160.127 41.1076 159.813 40.8009 159.6C40.4943 159.373 40.0809 159.26 39.5609 159.26C39.0143 159.26 38.5743 159.387 38.2409 159.64C37.9209 159.88 37.6876 160.207 37.5409 160.62C37.4076 161.033 37.3409 161.493 37.3409 162C37.3409 162.52 37.4076 162.993 37.5409 163.42C37.6876 163.833 37.9209 164.16 38.2409 164.4C38.5743 164.64 39.0143 164.76 39.5609 164.76ZM47.8294 166C47.2694 166 46.856 165.853 46.5894 165.56C46.3227 165.267 46.1894 164.82 46.1894 164.22V158.82H47.7694V164.68H49.6694V166H47.8294ZM44.9294 159.02V157.82C45.236 157.82 45.4827 157.8 45.6694 157.76C45.8694 157.72 46.016 157.64 46.1094 157.52C46.216 157.387 46.2894 157.18 46.3294 156.9C46.3694 156.607 46.3894 156.213 46.3894 155.72H47.7694V157.82H49.6494V159.02H44.9294ZM55.5342 166.2C54.7742 166.2 54.0875 166.04 53.4742 165.72C52.8609 165.4 52.3742 164.933 52.0142 164.32C51.6542 163.707 51.4742 162.96 51.4742 162.08C51.5009 161.2 51.6875 160.44 52.0342 159.8C52.3942 159.16 52.8809 158.667 53.4942 158.32C54.1075 157.973 54.8009 157.8 55.5742 157.8C56.3475 157.8 57.0075 157.947 57.5542 158.24C58.1142 158.533 58.5542 158.913 58.8742 159.38C59.1942 159.847 59.3875 160.353 59.4542 160.9H57.9142C57.8075 160.38 57.5542 159.973 57.1542 159.68C56.7542 159.387 56.2475 159.24 55.6342 159.24C55.1009 159.24 54.6475 159.36 54.2742 159.6C53.9009 159.827 53.6142 160.147 53.4142 160.56C53.2142 160.96 53.1075 161.427 53.0942 161.96C53.0942 162.8 53.3142 163.473 53.7542 163.98C54.1942 164.487 54.8142 164.74 55.6142 164.74C56.1875 164.74 56.6875 164.593 57.1142 164.3C57.5409 164.007 57.8075 163.58 57.9142 163.02H59.4542C59.3875 163.58 59.1875 164.1 58.8542 164.58C58.5342 165.06 58.0942 165.453 57.5342 165.76C56.9742 166.053 56.3075 166.2 55.5342 166.2ZM61.6128 166V154.74H63.3128V159.72H63.3528C63.3661 159.667 63.4195 159.54 63.5128 159.34C63.6061 159.14 63.7528 158.927 63.9528 158.7C64.1661 158.46 64.4461 158.253 64.7928 158.08C65.1395 157.907 65.5795 157.82 66.1128 157.82C66.6861 157.82 67.1595 157.913 67.5328 158.1C67.9061 158.273 68.1995 158.513 68.4128 158.82C68.6395 159.127 68.8061 159.467 68.9128 159.84C69.0195 160.213 69.0861 160.587 69.1128 160.96C69.1528 161.333 69.1728 161.68 69.1728 162V166H67.5528V161.98C67.5528 161.473 67.4995 161.02 67.3928 160.62C67.2861 160.207 67.0928 159.887 66.8128 159.66C66.5328 159.42 66.1128 159.3 65.5528 159.3C64.9928 159.3 64.5461 159.433 64.2128 159.7C63.8928 159.967 63.6595 160.313 63.5128 160.74C63.3795 161.153 63.3128 161.607 63.3128 162.1V166H61.6128ZM76.5797 166V157.82H78.1397L78.1997 159.72H78.2397C78.253 159.64 78.3064 159.5 78.3997 159.3C78.493 159.1 78.633 158.887 78.8197 158.66C79.0197 158.433 79.273 158.24 79.5797 158.08C79.8997 157.907 80.2997 157.82 80.7797 157.82C81.2464 157.82 81.633 157.913 81.9397 158.1C82.2464 158.273 82.4864 158.507 82.6597 158.8C82.8464 159.08 82.9797 159.387 83.0597 159.72H83.0997C83.1264 159.64 83.193 159.5 83.2997 159.3C83.4064 159.1 83.5597 158.887 83.7597 158.66C83.973 158.42 84.2464 158.22 84.5797 158.06C84.913 157.9 85.3197 157.82 85.7997 157.82C86.3197 157.82 86.7464 157.927 87.0797 158.14C87.4264 158.353 87.6997 158.633 87.8997 158.98C88.0997 159.313 88.2464 159.673 88.3397 160.06C88.433 160.433 88.493 160.793 88.5197 161.14C88.5464 161.487 88.5597 161.773 88.5597 162V166H86.9397V161.98C86.9397 161.767 86.9264 161.513 86.8997 161.22C86.8864 160.913 86.8264 160.613 86.7197 160.32C86.6264 160.027 86.4664 159.787 86.2397 159.6C86.013 159.4 85.693 159.3 85.2797 159.3C84.7997 159.3 84.4197 159.433 84.1397 159.7C83.8597 159.967 83.6597 160.313 83.5397 160.74C83.433 161.167 83.3797 161.62 83.3797 162.1V166H81.7597V161.98C81.7597 161.767 81.7464 161.513 81.7197 161.22C81.7064 160.913 81.6464 160.613 81.5397 160.32C81.4464 160.027 81.2864 159.787 81.0597 159.6C80.833 159.4 80.513 159.3 80.0997 159.3C79.6197 159.3 79.2397 159.433 78.9597 159.7C78.6797 159.967 78.4797 160.313 78.3597 160.74C78.253 161.167 78.1997 161.62 78.1997 162.1V166H76.5797ZM94.4747 166.2C93.5947 166.2 92.8547 166.02 92.2547 165.66C91.6547 165.3 91.2014 164.807 90.8947 164.18C90.6014 163.54 90.4547 162.82 90.4547 162.02C90.4547 161.193 90.6014 160.467 90.8947 159.84C91.2014 159.2 91.6547 158.7 92.2547 158.34C92.8547 157.98 93.6014 157.8 94.4947 157.8C95.8014 157.8 96.7947 158.187 97.4747 158.96C98.1547 159.733 98.4947 160.753 98.4947 162.02C98.4947 162.807 98.348 163.52 98.0547 164.16C97.7747 164.787 97.3347 165.287 96.7347 165.66C96.148 166.02 95.3947 166.2 94.4747 166.2ZM94.4747 164.78C95.128 164.78 95.628 164.64 95.9747 164.36C96.3214 164.08 96.5547 163.727 96.6747 163.3C96.808 162.86 96.8747 162.413 96.8747 161.96C96.8747 161.507 96.808 161.067 96.6747 160.64C96.5547 160.2 96.3214 159.84 95.9747 159.56C95.628 159.267 95.128 159.12 94.4747 159.12C93.848 159.12 93.3547 159.267 92.9947 159.56C92.648 159.84 92.408 160.2 92.2747 160.64C92.1414 161.067 92.0747 161.507 92.0747 161.96C92.0747 162.413 92.1414 162.86 92.2747 163.3C92.408 163.727 92.648 164.08 92.9947 164.36C93.3547 164.64 93.848 164.78 94.4747 164.78ZM100.751 166V157.82H102.291L102.431 160.18L102.411 161.94V166H100.751ZM102.411 162.32L102.351 160.52C102.365 160.227 102.431 159.927 102.551 159.62C102.671 159.3 102.851 159.007 103.091 158.74C103.345 158.46 103.665 158.24 104.051 158.08C104.451 157.907 104.931 157.82 105.491 157.82H105.831V159.66H105.471C104.871 159.66 104.371 159.72 103.971 159.84C103.571 159.947 103.258 160.113 103.031 160.34C102.805 160.567 102.645 160.847 102.551 161.18C102.458 161.513 102.411 161.893 102.411 162.32ZM111.28 166.2C110.36 166.2 109.607 166 109.02 165.6C108.433 165.187 108 164.66 107.72 164.02C107.44 163.367 107.3 162.693 107.3 162C107.287 161.213 107.433 160.5 107.74 159.86C108.06 159.22 108.513 158.713 109.1 158.34C109.7 157.967 110.413 157.78 111.24 157.78C111.96 157.78 112.6 157.94 113.16 158.26C113.72 158.567 114.167 159.007 114.5 159.58C114.833 160.14 115.013 160.807 115.04 161.58C115.053 161.62 115.06 161.7 115.06 161.82C115.06 161.927 115.06 162.02 115.06 162.1H108.88C108.88 162.953 109.087 163.62 109.5 164.1C109.927 164.567 110.513 164.8 111.26 164.8C111.82 164.8 112.293 164.66 112.68 164.38C113.08 164.087 113.327 163.7 113.42 163.22H115.04C114.96 163.78 114.76 164.287 114.44 164.74C114.12 165.193 113.693 165.553 113.16 165.82C112.627 166.073 112 166.2 111.28 166.2ZM108.94 161.28H113.38C113.367 161.133 113.327 160.94 113.26 160.7C113.207 160.46 113.1 160.227 112.94 160C112.78 159.76 112.56 159.56 112.28 159.4C112 159.24 111.64 159.16 111.2 159.16C110.8 159.16 110.46 159.227 110.18 159.36C109.9 159.493 109.673 159.673 109.5 159.9C109.327 160.113 109.193 160.347 109.1 160.6C109.02 160.84 108.967 161.067 108.94 161.28Z" fill="#ECBE15"/>
</svg>
