<svg width="292" height="292" viewBox="0 0 292 292" fill="none" xmlns="http://www.w3.org/2000/svg">
<path d="M140.008 15.0431C141.935 9.85956 149.267 9.85954 151.194 15.0431L171.891 70.7082C173.1 73.9589 176.816 75.498 179.969 74.054L233.965 49.3278C238.993 47.0252 244.177 52.2095 241.875 57.2377L217.149 111.234C215.705 114.387 217.244 118.103 220.494 119.311L276.16 140.008C281.343 141.935 281.343 149.267 276.16 151.194L220.494 171.891C217.244 173.1 215.705 176.816 217.149 179.969L241.875 233.965C244.177 238.993 238.993 244.177 233.965 241.875L179.969 217.149C176.816 215.705 173.1 217.244 171.891 220.494L151.195 276.16C149.267 281.343 141.935 281.343 140.008 276.16L119.311 220.494C118.103 217.244 114.387 215.705 111.234 217.149L57.2377 241.875C52.2096 244.177 47.0252 238.993 49.3277 233.965L74.054 179.969C75.498 176.816 73.9589 173.1 70.7082 171.891L15.0431 151.195C9.85956 149.267 9.85954 141.935 15.0431 140.008L70.7082 119.311C73.9589 118.103 75.498 114.387 74.054 111.234L49.3278 57.2377C47.0252 52.2096 52.2095 47.0252 57.2377 49.3277L111.234 74.054C114.387 75.498 118.103 73.9589 119.311 70.7082L140.008 15.0431Z" fill="#647E37"/>
<path d="M130.548 155.06V149.397H136.656C138.558 149.397 139.97 149.011 140.892 148.238C141.813 147.465 142.274 146.172 142.274 144.359C142.274 142.724 141.843 141.49 140.981 140.658C140.149 139.826 138.826 139.41 137.013 139.41H130.548V133.792H137.28C139.123 133.792 140.788 134.015 142.274 134.461C143.79 134.877 145.083 135.516 146.153 136.378C147.253 137.24 148.1 138.34 148.694 139.677C149.289 141.015 149.586 142.605 149.586 144.448C149.586 146.766 149.051 148.713 147.981 150.289C146.94 151.864 145.395 153.053 143.344 153.856C141.323 154.658 138.811 155.06 135.809 155.06H130.548ZM125.197 163.219V133.792H132.42V163.219H125.197ZM163.515 163.798C160.751 163.798 158.7 163.07 157.362 161.614C156.055 160.157 155.401 157.868 155.401 154.747V145.295H152.324L152.413 140.079H153.974C155.282 139.989 156.218 139.677 156.783 139.142C157.377 138.607 157.749 137.73 157.897 136.512L158.299 134.372H162.401V139.677H167.974V145.518H162.401V154.302C162.401 155.342 162.653 156.1 163.159 156.575C163.664 157.051 164.392 157.289 165.343 157.289C165.849 157.289 166.339 157.229 166.815 157.11C167.32 156.992 167.736 156.828 168.063 156.62V163.13C167.142 163.427 166.295 163.605 165.522 163.665C164.779 163.754 164.11 163.798 163.515 163.798Z" fill="#FFF7E8"/>
</svg>
