<svg width="253" height="253" viewBox="0 0 253 253" fill="none" xmlns="http://www.w3.org/2000/svg">
<path d="M92.5562 12.6666C95.965 -1.24108 114.398 -4.24931 122.051 7.85298L160.347 68.4078C162.592 71.958 166.125 74.5 170.205 75.5L239.793 92.5561C253.701 95.9648 256.709 114.398 244.607 122.051L184.052 160.347C180.502 162.592 177.96 166.125 176.96 170.205L159.904 239.793C156.495 253.701 138.062 256.709 130.408 244.607L92.1132 184.052C89.8681 180.502 86.3345 177.96 82.2548 176.96L12.6667 159.904C-1.24096 156.495 -4.2492 138.062 7.85309 130.408L68.4079 92.1131C71.9581 89.868 74.5001 86.3344 75.5001 82.2547L92.5562 12.6666Z" fill="#A44819"/>
</svg>
