<svg width="310" height="310" viewBox="0 0 310 310" fill="none" xmlns="http://www.w3.org/2000/svg">
<path d="M151.001 17.6674C151.839 13.6615 157.559 13.6615 158.398 17.6674L173.044 87.6308C173.642 90.4881 177.116 91.6169 179.28 89.6569L232.252 41.6642C235.285 38.9162 239.913 42.2783 238.237 46.0121L208.962 111.223C207.767 113.886 209.914 116.841 212.816 116.527L283.881 108.837C287.95 108.396 289.718 113.836 286.167 115.872L224.154 151.421C221.621 152.873 221.621 156.526 224.154 157.977L286.167 193.527C289.718 195.562 287.95 201.002 283.881 200.562L212.816 192.872C209.914 192.557 207.767 195.513 208.962 198.176L238.237 263.386C239.913 267.12 235.285 270.482 232.252 267.734L179.28 219.742C177.116 217.782 173.642 218.91 173.044 221.768L158.398 291.731C157.559 295.737 151.839 295.737 151.001 291.731L136.354 221.768C135.756 218.91 132.282 217.782 130.119 219.742L77.1461 267.734C74.113 270.482 69.4856 267.12 71.1618 263.386L100.436 198.176C101.632 195.513 99.4845 192.557 96.5822 192.872L25.5171 200.562C21.4481 201.002 19.6806 195.562 23.2313 193.527L85.2445 157.977C87.777 156.526 87.777 152.873 85.2445 151.421L23.2313 115.872C19.6806 113.836 21.4481 108.396 25.5171 108.837L96.5822 116.527C99.4845 116.841 101.632 113.886 100.436 111.223L71.1618 46.0121C69.4856 42.2783 74.113 38.9162 77.1461 41.6642L130.119 89.6569C132.282 91.6169 135.756 90.488 136.354 87.6308L151.001 17.6674Z" fill="#127EB0"/>
<path d="M155.001 134.273V175.607M175.667 154.94L134.334 154.94" stroke="#FFF7E8" stroke-width="5.16667" stroke-linecap="round" stroke-linejoin="round"/>
</svg>
