<svg width="39" height="39" viewBox="0 0 39 39" fill="none" xmlns="http://www.w3.org/2000/svg">
<path d="M17.4733 4.4584C18.1845 2.78626 20.5546 2.78626 21.2657 4.4584L24.8242 12.8251C25.0328 13.3156 25.4234 13.7062 25.9139 13.9149L34.2807 17.4733C35.9528 18.1845 35.9528 20.5546 34.2807 21.2657L25.9139 24.8242C25.4234 25.0328 25.0328 25.4234 24.8242 25.9139L21.2657 34.2807C20.5546 35.9528 18.1845 35.9528 17.4733 34.2807L13.9149 25.9139C13.7062 25.4234 13.3156 25.0328 12.8251 24.8242L4.4584 21.2657C2.78626 20.5546 2.78626 18.1845 4.4584 17.4733L12.8251 13.9149C13.3156 13.7062 13.7062 13.3156 13.9149 12.8251L17.4733 4.4584Z" fill="#647E37"/>
<circle cx="19.1634" cy="19.5756" r="17.9271" stroke="#647E37" stroke-width="1.64847"/>
</svg>
